<svg width="45" height="32" viewBox="0 0 45 32" fill="none" xmlns="http://www.w3.org/2000/svg">
<g clip-path="url(#clip0)">
<path d="M32.0371 6.34085C30.4704 6.23279 28.8975 6.41858 27.3977 6.88883C25.8369 4.89927 23.8192 3.32463 21.5197 2.30151C19.2203 1.27838 16.7085 0.837692 14.2024 1.01767C10.483 1.33655 7.00129 2.99722 4.39362 5.69619C1.78594 8.39517 0.226407 11.9522 1.15354e-05 15.7173C-0.101407 17.8175 0.220399 19.9167 0.94591 21.8874C1.67142 23.8582 2.78552 25.6595 4.22063 27.182C5.65574 28.7046 7.38195 29.9168 9.29457 30.745C11.2072 31.5732 13.2664 32.0001 15.3472 32H31.1592C32.8673 32.0057 34.559 31.6632 36.1332 30.9931C37.7073 30.323 39.1316 29.3389 40.3208 28.0999C41.5101 26.8608 42.4398 25.3921 43.0545 23.7816C43.6691 22.1711 43.9561 20.4519 43.8983 18.7268C43.7695 15.5513 42.4898 12.5345 40.3027 10.2505C38.1155 7.96663 35.1737 6.57511 32.0371 6.34085ZM37.8128 25.6678C36.952 26.573 35.9186 27.2925 34.7751 27.7828C33.6315 28.2732 32.4014 28.5242 31.1592 28.5208H15.3472C13.7319 28.5229 12.1331 28.1928 10.6481 27.5505C9.16305 26.9083 7.82292 25.9673 6.70926 24.785C5.59561 23.6027 4.73172 22.2037 4.17019 20.6732C3.60867 19.1427 3.36125 17.5128 3.44301 15.8826C3.61865 12.9641 4.82757 10.207 6.84889 8.11487C8.8702 6.02279 11.569 4.73549 14.452 4.48817C14.7533 4.48817 15.0545 4.48817 15.3558 4.48817C17.315 4.48074 19.2452 4.96671 20.9719 5.90218C22.6987 6.83764 24.1675 8.19313 25.2458 9.84615C25.4966 10.2175 25.8663 10.4902 26.2926 10.6185C26.719 10.7468 27.1761 10.7228 27.587 10.5507C29.5499 9.73368 31.7309 9.62285 33.7649 10.2367C35.799 10.8506 37.5626 12.152 38.7605 13.923C39.9585 15.6939 40.518 17.827 40.3455 19.9651C40.1729 22.1031 39.2788 24.1164 37.8128 25.6678Z" fill="#70DFDF" fill-opacity="0.4"/>
<path d="M32.2867 31.0171H16.4834C14.4071 31.0182 12.3522 30.5936 10.4431 29.7689C8.53396 28.9443 6.81026 27.7367 5.37631 26.2194C3.94237 24.7021 2.82801 22.9065 2.10068 20.9414C1.37334 18.9763 1.04816 16.8824 1.14481 14.7866C1.3507 11.0089 2.89894 7.43316 5.50498 4.71662C8.11101 2.00009 11.5997 0.325274 15.33 -2.04891e-06C17.8391 -0.175923 20.3527 0.270149 22.6524 1.29943C24.952 2.32871 26.9681 3.91005 28.5253 5.90595C30.0248 5.43485 31.5985 5.25194 33.1647 5.36667C36.2937 5.60887 39.226 7.00273 41.4059 9.28402C43.5857 11.5653 44.8615 14.5755 44.9914 17.7439C45.0492 19.4661 44.7633 21.1824 44.1507 22.7906C43.5381 24.3988 42.6115 25.8659 41.4259 27.1044C40.2404 28.343 38.8203 29.3278 37.2501 30C35.68 30.6722 33.992 31.0181 32.2867 31.0171ZM16.492 3.4792C16.1907 3.4792 15.8808 3.4792 15.5796 3.4792C12.6941 3.73146 9.99498 5.02547 7.97644 7.12434C5.9579 9.22321 4.75495 11.9865 4.58781 14.9084C4.5073 16.5371 4.75535 18.1654 5.31689 19.6943C5.87843 21.2232 6.74174 22.6207 7.85435 23.802C8.96696 24.9832 10.3056 25.9235 11.789 26.5658C13.2724 27.208 14.8696 27.5388 16.4834 27.5379H32.2867C33.5303 27.5387 34.7612 27.2863 35.9062 26.796C37.0511 26.3057 38.0866 25.5874 38.951 24.6839C39.8153 23.7805 40.4907 22.7104 40.937 21.5375C41.3832 20.3646 41.5912 19.1129 41.5484 17.857C41.4523 15.5504 40.5236 13.3591 38.9377 11.6973C37.3518 10.0354 35.2186 9.01796 32.9409 8.83718C31.4996 8.72952 30.0536 8.97106 28.7232 9.54172C28.3111 9.71137 27.8539 9.73311 27.4278 9.60332C27.0018 9.47352 26.6326 9.20004 26.382 8.82848C25.3027 7.17707 23.8334 5.82329 22.1067 4.88938C20.3801 3.95546 18.4504 3.47082 16.492 3.4792Z" fill="#6980C5"/>
</g>
<defs>
<clipPath id="clip0">
<rect width="45" height="32" fill="white"/>
</clipPath>
</defs>
</svg>
