<svg width="46" height="35" viewBox="0 0 46 35" fill="none" xmlns="http://www.w3.org/2000/svg">
<g clip-path="url(#clip0)">
<path d="M6.74319 31.5061L22.9286 27.1388L39.1228 31.5061C39.5861 31.5061 40.0304 31.6902 40.358 32.0178C40.6857 32.3454 40.8697 32.7897 40.8697 33.2531C40.8697 33.7164 40.6857 34.1607 40.358 34.4883C40.0304 34.816 39.5861 35 39.1228 35L22.9286 30.6326L6.74319 35C6.27987 35 5.83553 34.816 5.50791 34.4883C5.1803 34.1607 4.99625 33.7164 4.99625 33.2531C4.99625 32.7897 5.1803 32.3454 5.50791 32.0178C5.83553 31.6902 6.27987 31.5061 6.74319 31.5061Z" fill="#70DFDF" fill-opacity="0.4"/>
<path d="M24.6756 1.74694C24.6756 0.782133 23.8934 0 22.9286 0C21.9638 0 21.1817 0.782133 21.1817 1.74694V4.14899C21.1817 5.1138 21.9638 5.89593 22.9286 5.89593C23.8934 5.89593 24.6756 5.1138 24.6756 4.14899V1.74694Z" fill="#70DFDF"/>
<path d="M5.29325 20.5266H2.8912C1.92639 20.5266 1.14426 21.3087 1.14426 22.2735C1.14426 23.2383 1.92639 24.0205 2.8912 24.0205H5.29325C6.25806 24.0205 7.04019 23.2383 7.04019 22.2735C7.04019 21.3087 6.25806 20.5266 5.29325 20.5266Z" fill="#70DFDF"/>
<path d="M43.9531 20.5266H41.551C40.5862 20.5266 39.8041 21.3087 39.8041 22.2735C39.8041 23.2383 40.5862 24.0205 41.551 24.0205H43.9531C44.9179 24.0205 45.7 23.2383 45.7 22.2735C45.7 21.3087 44.9179 20.5266 43.9531 20.5266Z" fill="#70DFDF"/>
<path d="M11.3551 8.67357L9.66058 6.98777C9.49834 6.82535 9.30567 6.6965 9.09359 6.60858C8.88152 6.52067 8.65419 6.47542 8.42462 6.47542C8.19504 6.47542 7.96772 6.52067 7.75564 6.60858C7.54357 6.6965 7.3509 6.82535 7.18865 6.98777C7.02623 7.15002 6.89738 7.34268 6.80946 7.55476C6.72155 7.76684 6.6763 7.99416 6.6763 8.22373C6.6763 8.45331 6.72155 8.68063 6.80946 8.89271C6.89738 9.10479 7.02623 9.29745 7.18865 9.4597L8.9356 11.1455C9.09784 11.3079 9.29051 11.4368 9.50258 11.5247C9.71466 11.6126 9.94199 11.6579 10.1716 11.6579C10.4011 11.6579 10.6285 11.6126 10.8405 11.5247C11.0526 11.4368 11.2453 11.3079 11.4075 11.1455C11.5666 10.9798 11.6914 10.7844 11.7748 10.5705C11.8583 10.3566 11.8987 10.1283 11.8938 9.89867C11.889 9.66908 11.8389 9.4427 11.7464 9.23249C11.654 9.02227 11.521 8.83235 11.3551 8.67357Z" fill="#70DFDF"/>
<path d="M37.3758 10.569L39.0529 8.82206C39.3783 8.49475 39.5609 8.05198 39.5609 7.59046C39.5609 7.12894 39.3783 6.68618 39.0529 6.35887C38.8906 6.19644 38.698 6.06759 38.4859 5.97968C38.2738 5.89176 38.0465 5.84651 37.8169 5.84651C37.5874 5.84651 37.36 5.89176 37.148 5.97968C36.9359 6.06759 36.7432 6.19644 36.581 6.35887L34.8952 8.10581C34.7327 8.26805 34.6039 8.46072 34.516 8.6728C34.4281 8.88487 34.3828 9.1122 34.3828 9.34177C34.3828 9.57135 34.4281 9.79867 34.516 10.0107C34.6039 10.2228 34.7327 10.4155 34.8952 10.5777C35.0581 10.7409 35.2518 10.8702 35.465 10.9581C35.6782 11.0461 35.9067 11.0909 36.1373 11.0901C36.3679 11.0893 36.5961 11.0428 36.8087 10.9534C37.0212 10.864 37.214 10.7333 37.3758 10.569Z" fill="#70DFDF"/>
<path d="M23.5313 2.73396C23.5313 1.76915 22.7492 0.987015 21.7844 0.987015C20.8196 0.987015 20.0374 1.76915 20.0374 2.73396V5.136C20.0374 6.10081 20.8196 6.88295 21.7844 6.88295C22.7492 6.88295 23.5313 6.10081 23.5313 5.136V2.73396Z" fill="#70DFDF" fill-opacity="0.4"/>
<path d="M4.14899 21.5136H1.74694C0.782133 21.5136 0 22.2957 0 23.2605C0 24.2253 0.782133 25.0075 1.74694 25.0075H4.14899C5.1138 25.0075 5.89593 24.2253 5.89593 23.2605C5.89593 22.2957 5.1138 21.5136 4.14899 21.5136Z" fill="#70DFDF" fill-opacity="0.4"/>
<path d="M10.2458 12.1238C10.4082 11.9615 10.5371 11.7689 10.625 11.5568C10.7129 11.3447 10.7582 11.1174 10.7582 10.8878C10.7582 10.6583 10.7129 10.4309 10.625 10.2189C10.5371 10.0068 10.4082 9.81411 10.2458 9.65187L8.49887 7.9748C8.34351 7.77898 8.14793 7.61879 7.92535 7.50503C7.70277 7.39128 7.45837 7.32661 7.20866 7.3154C6.95895 7.30419 6.70974 7.34671 6.47787 7.44007C6.24599 7.53342 6.03685 7.67546 5.86457 7.85657C5.6923 8.03768 5.56089 8.25366 5.47923 8.48991C5.39758 8.72616 5.36757 8.97718 5.39124 9.22602C5.41491 9.47486 5.49171 9.71572 5.61645 9.93234C5.74118 10.149 5.91095 10.3363 6.11429 10.4817L7.86123 12.1587C8.18916 12.4561 8.61776 12.6179 9.06041 12.6115C9.50306 12.605 9.92674 12.4307 10.2458 12.1238Z" fill="#70DFDF" fill-opacity="0.4"/>
<path d="M10.0799 24.0292C9.80696 21.9364 10.03 19.8087 10.731 17.818C11.432 15.8273 12.5913 14.0293 14.1153 12.5693C12.2331 14.0028 10.7629 15.908 9.85337 18.0921C8.94384 20.2762 8.62725 22.6618 8.93562 25.0075C9.14273 26.6147 9.64622 28.1696 10.4205 29.5932L11.888 29.2002C10.9328 27.6207 10.3171 25.8597 10.0799 24.0292Z" fill="#70DFDF" fill-opacity="0.4"/>
<path d="M32.0913 24.9463C31.9079 26.062 31.5263 27.1358 30.9646 28.117L31.3926 28.2393C32.3436 26.9825 32.976 25.5139 33.2356 23.9593C33.5042 22.3886 33.3922 20.7764 32.9091 19.2579C32.426 17.7394 31.5859 16.3589 30.4591 15.2322C29.3324 14.1054 27.9518 13.2652 26.4333 12.7821C24.9148 12.299 23.3026 12.1871 21.732 12.4557C19.709 12.7977 17.8433 13.7626 16.3951 15.2159C17.6341 14.3089 19.0713 13.7101 20.5877 13.4689C22.1559 13.2015 23.7652 13.3134 25.2813 13.7951C26.7974 14.2769 28.1761 15.1146 29.3022 16.2381C30.4284 17.3617 31.2692 18.7385 31.7544 20.2535C32.2396 21.7685 32.3552 23.3776 32.0913 24.9463Z" fill="#70DFDF" fill-opacity="0.4"/>
<path d="M39.6119 30.4579L34.9389 29.1914C36.5977 26.399 37.1894 23.1004 36.6046 19.9055C36.0198 16.7106 34.298 13.8355 31.7576 11.8117C29.2172 9.78794 26.03 8.75235 22.7853 8.89642C19.5405 9.04049 16.4576 10.3545 14.1066 12.5955C16.7485 10.5837 20.0416 9.62092 23.3512 9.8928C26.6608 10.1647 29.7526 11.6519 32.0308 14.0679C34.309 16.4839 35.6124 19.6576 35.6897 22.9775C35.767 26.2973 34.6128 29.5283 32.4495 32.0477L32.6067 32.0913L39.5945 33.978C40.0578 33.978 40.5021 33.794 40.8297 33.4664C41.1574 33.1388 41.3414 32.6944 41.3414 32.2311C41.3414 31.7678 41.1574 31.3234 40.8297 30.9958C40.5021 30.6682 40.0578 30.4841 39.5945 30.4841L39.6119 30.4579Z" fill="#6980C5"/>
<path d="M23.4178 29.5845L28.3703 30.9121L28.5712 30.9733C29.5379 30.1765 30.3492 29.2082 30.9646 28.117L23.4178 26.0906L15.4604 28.2306C14.0149 26.3155 13.3129 23.9411 13.4848 21.5478C13.6567 19.1545 14.6907 16.9048 16.395 15.2159C15.1067 16.1488 14.0614 17.3776 13.3469 18.7988C12.6324 20.22 12.2698 21.7919 12.2895 23.3825C12.3092 24.973 12.7106 26.5356 13.46 27.9386C14.2095 29.3417 15.2849 30.5442 16.5959 31.445L18.4826 30.9384L23.4178 29.5845Z" fill="#6980C5"/>
<path d="M7.23235 30.458C6.76904 30.458 6.3247 30.642 5.99708 30.9696C5.66946 31.2972 5.48541 31.7416 5.48541 32.2049C5.48541 32.6682 5.66946 33.1126 5.99708 33.4402C6.3247 33.7678 6.76904 33.9518 7.23235 33.9518L12.5343 32.5193C11.7039 31.6413 10.9932 30.6574 10.4205 29.5932L7.23235 30.458Z" fill="#6980C5"/>
<path d="M35.6114 21.5049C35.3082 19.1644 34.3938 16.9451 32.9603 15.0704C31.5267 13.1957 29.6245 11.7317 27.4453 10.8258C25.2661 9.91991 22.8866 9.60411 20.5465 9.91018C18.2064 10.2162 15.9883 11.1334 14.1153 12.5693C12.5913 14.0293 11.432 15.8273 10.731 17.818C10.03 19.8087 9.80696 21.9364 10.0799 24.0292C10.3171 25.8597 10.9328 27.6207 11.8879 29.2002L10.4205 29.5932C10.9932 30.6574 11.7039 31.6413 12.5343 32.5193L14.2201 32.0651L16.596 31.445C15.2896 30.5441 14.2182 29.3433 13.4714 27.9432C12.7246 26.5431 12.3241 24.9844 12.3036 23.3977C12.2831 21.811 12.6431 20.2425 13.3534 18.8235C14.0637 17.4045 15.1037 16.1765 16.3863 15.2421C17.8345 13.7888 19.7003 12.8239 21.7232 12.4819C23.292 12.2129 24.9024 12.3236 26.4197 12.8046C27.9369 13.2857 29.3169 14.1231 30.4441 15.2469C31.5713 16.3707 32.4129 17.7481 32.8986 19.2639C33.3843 20.7797 33.4998 22.3897 33.2356 23.9593C32.976 25.5139 32.3436 26.9825 31.3926 28.2393L30.9646 28.1171C30.3492 29.2082 29.5379 30.1765 28.5712 30.9733L32.4669 32.0215C33.7033 30.5896 34.6227 28.9122 35.1647 27.0997C35.7067 25.2872 35.8589 23.3805 35.6114 21.5049Z" fill="#6980C5"/>
</g>
<defs>
<clipPath id="clip0">
<rect width="45.6913" height="35" fill="white"/>
</clipPath>
</defs>
</svg>
