<svg width="47" height="35" viewBox="0 0 47 35" fill="none" xmlns="http://www.w3.org/2000/svg">
<g clip-path="url(#clip0)">
<path d="M39.2732 30.4734L22.4884 35L5.71264 30.4734C5.23242 30.4734 4.77187 30.2826 4.43231 29.943C4.09274 29.6035 3.90198 29.1429 3.90198 28.6627C3.90198 28.1825 4.09274 27.7219 4.43231 27.3824C4.77187 27.0428 5.23242 26.8521 5.71264 26.8521L22.4884 31.3787L39.2732 26.8521C39.7534 26.8521 40.2139 27.0428 40.5535 27.3824C40.8931 27.7219 41.0838 28.1825 41.0838 28.6627C41.0838 29.1429 40.8931 29.6035 40.5535 29.943C40.2139 30.2826 39.7534 30.4734 39.2732 30.4734Z" fill="#70DFDF" fill-opacity="0.4"/>
<path d="M24.3896 1.81066C24.3896 0.810659 23.5789 0 22.5789 0C21.5789 0 20.7682 0.810659 20.7682 1.81066V4.30031C20.7682 5.30031 21.5789 6.11097 22.5789 6.11097C23.5789 6.11097 24.3896 5.30031 24.3896 4.30031V1.81066Z" fill="#70DFDF"/>
<path d="M4.30031 21.2752H1.81066C0.810659 21.2752 0 22.0859 0 23.0859C0 24.0859 0.810659 24.8965 1.81066 24.8965H4.30031C5.30031 24.8965 6.11097 24.0859 6.11097 23.0859C6.11097 22.0859 5.30031 21.2752 4.30031 21.2752Z" fill="#70DFDF"/>
<path d="M44.3611 21.2752H41.8714C40.8715 21.2752 40.0608 22.0859 40.0608 23.0859C40.0608 24.0859 40.8715 24.8965 41.8714 24.8965H44.3611C45.3611 24.8965 46.1718 24.0859 46.1718 23.0859C46.1718 22.0859 45.3611 21.2752 44.3611 21.2752Z" fill="#70DFDF"/>
<path d="M10.6014 8.98992L8.82695 7.24263C8.65879 7.07429 8.45909 6.94073 8.23928 6.84961C8.01947 6.75849 7.78386 6.71159 7.54591 6.71159C7.30796 6.71159 7.07234 6.75849 6.85253 6.84961C6.63272 6.94073 6.43303 7.07429 6.26487 7.24263C6.09652 7.4108 5.96297 7.61049 5.87185 7.8303C5.78073 8.05011 5.73383 8.28573 5.73383 8.52367C5.73383 8.76162 5.78073 8.99724 5.87185 9.21705C5.96297 9.43686 6.09652 9.63655 6.26487 9.80471L8.07553 11.552C8.41477 11.8892 8.87369 12.0785 9.35204 12.0785C9.83039 12.0785 10.2893 11.8892 10.6286 11.552C10.7951 11.3821 10.9266 11.181 11.0154 10.9602C11.1042 10.7394 11.1486 10.5033 11.1461 10.2653C11.1435 10.0274 11.0941 9.79225 11.0007 9.57341C10.9072 9.35456 10.7715 9.15629 10.6014 8.98992Z" fill="#70DFDF"/>
<path d="M37.544 10.9545L39.2913 9.14382C39.6285 8.80457 39.8178 8.34566 39.8178 7.86731C39.8178 7.38896 39.6285 6.93005 39.2913 6.5908C38.952 6.25356 38.4931 6.06427 38.0147 6.06427C37.5364 6.06427 37.0775 6.25356 36.7382 6.5908L34.9909 8.40145C34.8226 8.56961 34.689 8.76931 34.5979 8.98912C34.5068 9.20893 34.4599 9.44454 34.4599 9.68249C34.4599 9.92044 34.5068 10.1561 34.5979 10.3759C34.689 10.5957 34.8226 10.7954 34.9909 10.9635C35.3314 11.2996 35.791 11.4872 36.2693 11.4855C36.7477 11.4838 37.2059 11.2929 37.544 10.9545Z" fill="#70DFDF"/>
<path d="M23.2036 2.83368C23.2036 1.83368 22.3929 1.02303 21.3929 1.02303C20.3929 1.02303 19.5822 1.83368 19.5822 2.83368V5.32334C19.5822 6.32334 20.3929 7.13399 21.3929 7.13399C22.3929 7.13399 23.2036 6.32334 23.2036 5.32334V2.83368Z" fill="#70DFDF" fill-opacity="0.4"/>
<path d="M31.5869 28.9705C31.3886 29.263 31.174 29.5441 30.9441 29.8125C31.174 29.5441 31.3886 29.263 31.5869 28.9705Z" fill="#6980C5"/>
<path d="M32.284 27.7845C32.1023 28.1384 31.9029 28.4828 31.6865 28.8166C31.9029 28.4828 32.1023 28.1384 32.284 27.7845Z" fill="#6980C5"/>
<path d="M29.1968 31.4059C30.1686 30.4317 30.9379 29.2748 31.4602 28.0018L23.0859 30.2651L13.9149 27.7936C14.6858 29.3029 15.8172 30.5988 17.2088 31.5662C18.6004 32.5337 20.2091 33.1429 21.8925 33.3399C23.5758 33.5369 25.2818 33.3156 26.8591 32.6955C28.4365 32.0755 29.8365 31.0759 30.9351 29.7853C30.421 30.3916 29.8376 30.9355 29.1968 31.4059Z" fill="#6980C5"/>
<path d="M31.6865 28.8166C31.6542 28.8541 31.6239 28.8934 31.596 28.9343C31.6239 28.8934 31.6542 28.8541 31.6865 28.8166Z" fill="#70DFDF" fill-opacity="0.4"/>
<path d="M21.3386 12.91C19.2392 13.2644 17.3025 14.2644 15.798 15.7708C17.0839 14.8338 18.5728 14.2134 20.1436 13.9602C21.7692 13.6835 23.4375 13.7997 25.0091 14.299C26.5807 14.7984 28.01 15.6664 29.1778 16.8307C30.3456 17.9949 31.218 19.4217 31.7221 20.9917C32.2263 22.5618 32.3475 24.2297 32.0758 25.8562C31.9507 26.592 31.7443 27.3116 31.4602 28.0018L32.284 27.7845C32.7615 26.8576 33.0914 25.8618 33.2618 24.8332C33.5402 23.2052 33.4241 21.5342 32.9234 19.9603C32.4227 18.3864 31.5519 16.9556 30.384 15.7877C29.2162 14.6198 27.7853 13.749 26.2114 13.2483C24.6376 12.7476 22.9666 12.6316 21.3386 12.91Z" fill="#70DFDF" fill-opacity="0.4"/>
<path d="M39.8345 25.7385L36.53 26.6438C37.0541 24.6524 37.1305 22.5696 36.7538 20.5451C36.377 18.5206 35.5565 16.6047 34.3512 14.935C33.1459 13.2654 31.5857 11.8835 29.7827 10.8886C27.9797 9.89377 25.9787 9.31065 23.9236 9.18118C21.8684 9.05171 19.8101 9.3791 17.8965 10.1398C15.9829 10.9006 14.2616 12.0757 12.8563 13.5809C11.4509 15.0861 10.3965 16.8839 9.76867 18.8451C9.14086 20.8063 8.95529 22.8822 9.22529 24.9237C9.30242 25.5039 9.41734 26.0785 9.56931 26.6438L8.14795 26.2545C8.35538 27.6281 8.77054 28.9621 9.3792 30.2108L11.4796 30.7721L14.947 31.6774C13.8238 30.6456 12.9437 29.3773 12.3703 27.9641C11.7968 26.5509 11.5443 25.0279 11.6309 23.5052C11.7175 21.9825 12.1411 20.4981 12.8711 19.159C13.6012 17.8199 14.6194 16.6595 15.8523 15.7618C17.4046 14.2202 19.4062 13.2113 21.5688 12.8804C23.7313 12.5496 25.943 12.9138 27.8853 13.9207C29.8275 14.9275 31.3999 16.525 32.3759 18.4829C33.3519 20.4408 33.6811 22.658 33.3161 24.8151C33.1457 25.8437 32.8158 26.8395 32.3383 27.7664L31.5326 27.9656C31.0103 29.2386 30.2411 30.3955 29.2693 31.3696C28.8103 31.8288 28.3069 32.2412 27.7664 32.6009L34.1037 30.8898L34.7827 30.7087L39.8345 29.3598C40.3147 29.3598 40.7752 29.169 41.1148 28.8295C41.4543 28.4899 41.6451 28.0294 41.6451 27.5491C41.6451 27.0689 41.4543 26.6084 41.1148 26.2688C40.7752 25.9293 40.3147 25.7385 39.8345 25.7385ZM31.6865 28.8166L31.596 28.9705L31.6865 28.8166ZM30.1203 30.6273C30.4122 30.3417 30.6873 30.0394 30.9441 29.7219C30.6898 30.05 30.4114 30.3586 30.1112 30.6454L30.1203 30.6273Z" fill="#6980C5"/>
<path d="M9.26152 24.9056C8.97427 22.7362 9.20339 20.5297 9.93021 18.4657C10.657 16.4016 11.861 14.5384 13.4441 13.0277C11.4933 14.5135 9.96947 16.4881 9.02677 18.7519C8.08406 21.0157 7.75592 23.4883 8.07554 25.9196C8.07554 26.0282 8.07554 26.1278 8.12081 26.2274L9.60555 26.6257C9.45357 26.0604 9.33865 25.4858 9.26152 24.9056Z" fill="#70DFDF" fill-opacity="0.4"/>
<path d="M27.694 32.6371C28.2345 32.2775 28.7379 31.865 29.1968 31.4059C27.9098 32.3613 26.4142 32.9974 24.8332 33.2618C22.6706 33.6349 20.4455 33.3096 18.4802 32.3331C16.515 31.3566 14.9118 29.7796 13.9031 27.8307C12.8943 25.8818 12.5325 23.6623 12.8699 21.494C13.2074 19.3256 14.2266 17.321 15.7799 15.7708C14.5469 16.6686 13.5287 17.8289 12.7987 19.168C12.0687 20.5071 11.6451 21.9916 11.5585 23.5143C11.4719 25.037 11.7244 26.5599 12.2978 27.9732C12.8713 29.3864 13.7514 30.6547 14.8745 31.6865L23.0225 33.8865L27.694 32.6371Z" fill="#6980C5"/>
<path d="M6.3373 25.7385C5.85708 25.7385 5.39654 25.9293 5.05697 26.2688C4.71741 26.6084 4.52664 27.0689 4.52664 27.5492C4.52664 28.0294 4.71741 28.4899 5.05697 28.8295C5.39654 29.169 5.85708 29.3598 6.3373 29.3598L9.38826 30.1837C8.77908 28.944 8.36092 27.6193 8.14796 26.2545L6.3373 25.7385Z" fill="#6980C5"/>
</g>
<defs>
<clipPath id="clip0">
<rect width="46.1718" height="35" fill="white"/>
</clipPath>
</defs>
</svg>
