<svg width="26" height="39" viewBox="0 0 26 39" fill="none" xmlns="http://www.w3.org/2000/svg">
<path d="M12.216 39C4.57126 39 0 33.9915 0 25.5918C0 16.7132 10.5467 3.22645 10.9991 2.66123L12.216 1.09118L13.4407 2.66123C13.8932 3.22645 24.4398 16.7132 24.4398 25.5918C24.4398 33.9915 19.8686 39 12.216 39ZM12.216 6.28019C9.48575 10.0091 3.12031 19.445 3.12031 25.5918C3.12031 32.186 6.34983 35.8599 12.216 35.8599C18.0822 35.8599 21.3195 32.186 21.3195 25.5918C21.3195 19.445 14.9541 10.0091 12.216 6.28019Z" fill="#70DFDF" fill-opacity="0.4"/>
<path d="M13.7762 37.8931C6.13141 37.8931 1.56015 32.8847 1.56015 24.4849C1.56015 15.5984 12.1068 2.11957 12.5592 1.57005L13.7762 0L15.0009 1.57005C15.4533 2.14312 26 15.622 26 24.5085C26 32.8847 21.4287 37.8931 13.7762 37.8931ZM13.7762 5.13406C11.0459 8.90217 4.68046 18.3382 4.68046 24.4849C4.68046 31.1105 7.90999 34.753 13.7762 34.753C19.6424 34.753 22.8797 31.1105 22.8797 24.4849C22.8797 18.3382 16.5142 8.90217 13.7762 5.13406Z" fill="#6980C5"/>
</svg>
