<svg width="26" height="39" viewBox="0 0 26 39" fill="none" xmlns="http://www.w3.org/2000/svg">
<path d="M8.09931 39C6.36523 38.9872 4.68115 38.4199 3.29532 37.3816C1.9095 36.3433 0.895266 34.8889 0.402141 33.233C-0.0909832 31.577 -0.0369052 29.8071 0.556403 28.1841C1.14971 26.5611 2.25086 25.1709 3.6975 24.2184V1.44475H12.5011V24.2184C13.9478 25.1709 15.0489 26.5611 15.6422 28.1841C16.2355 29.8071 16.2896 31.577 15.7965 33.233C15.3034 34.8889 14.2891 36.3433 12.9033 37.3816C11.5175 38.4199 9.83339 38.9872 8.09931 39ZM7.05126 4.76017V26.2143L6.08706 26.6653C5.1094 27.1212 4.31702 27.8956 3.84069 28.8605C3.36437 29.8254 3.23257 30.9232 3.46703 31.9728C3.7015 33.0223 4.28823 33.9609 5.13039 34.6336C5.97255 35.3063 7.0198 35.6729 8.09931 35.6729C9.17882 35.6729 10.2261 35.3063 11.0682 34.6336C11.9104 33.9609 12.4971 33.0223 12.7316 31.9728C12.9661 30.9232 12.8343 29.8254 12.3579 28.8605C11.8816 27.8956 11.0892 27.1212 10.1116 26.6653L9.14736 26.2143V4.78522L7.05126 4.76017Z" fill="#70DFDF" fill-opacity="0.4"/>
<path d="M9.51628 37.5803C7.7604 37.5925 6.04819 37.0354 4.63812 35.9932C3.22805 34.9509 2.19666 33.4801 1.69966 31.8026C1.20266 30.1252 1.26703 28.3322 1.88304 26.6944C2.49905 25.0566 3.63327 23.6628 5.11447 22.7236V0H13.9181V22.7236C15.3993 23.6628 16.5335 25.0566 17.1495 26.6944C17.7655 28.3322 17.8299 30.1252 17.3329 31.8026C16.8359 33.4801 15.8045 34.9509 14.3944 35.9932C12.9844 37.0354 11.2722 37.5925 9.51628 37.5803ZM8.46823 3.34047V24.7612L7.54595 25.2122C6.56829 25.6681 5.77591 26.4424 5.29958 27.4074C4.82326 28.3723 4.69145 29.4701 4.92592 30.5196C5.16039 31.5692 5.74712 32.5078 6.58928 33.1805C7.43144 33.8532 8.47869 34.2198 9.5582 34.2198C10.6377 34.2198 11.685 33.8532 12.5271 33.1805C13.3693 32.5078 13.956 31.5692 14.1905 30.5196C14.4249 29.4701 14.2931 28.3723 13.8168 27.4074C13.3405 26.4424 12.5481 25.6681 11.5705 25.2122L10.6062 24.7612V3.34047H8.46823Z" fill="#6980C5"/>
<path d="M14.7314 5.39486C14.7269 5.56216 14.7561 5.72865 14.8173 5.88451C14.8785 6.04036 14.9704 6.18243 15.0877 6.30231C15.2049 6.4222 15.3451 6.51747 15.4999 6.5825C15.6547 6.64753 15.821 6.681 15.989 6.68094H23.7949C24.1285 6.68094 24.4483 6.54897 24.6842 6.31404C24.9201 6.07912 25.0526 5.7605 25.0526 5.42827C25.0526 5.09604 24.9201 4.77741 24.6842 4.54249C24.4483 4.30757 24.1285 4.17559 23.7949 4.17559H15.989C15.6612 4.17547 15.3463 4.30286 15.1114 4.5306C14.8765 4.75835 14.7401 5.06846 14.7314 5.39486Z" fill="#70DFDF"/>
<path d="M25.9916 6.48887C25.9916 6.15663 25.8591 5.83801 25.6232 5.60309C25.3874 5.36817 25.0675 5.23619 24.7339 5.23619H16.9281C16.5945 5.23619 16.2746 5.36817 16.0388 5.60309C15.8029 5.83801 15.6704 6.15663 15.6704 6.48887C15.6704 6.8211 15.8029 7.13972 16.0388 7.37464C16.2746 7.60956 16.5945 7.74154 16.9281 7.74154H24.7423C25.0744 7.73934 25.3922 7.60638 25.6262 7.3717C25.8603 7.13702 25.9916 6.81965 25.9916 6.48887Z" fill="#70DFDF" fill-opacity="0.4"/>
<path d="M14.7314 10.3805C14.7314 10.7127 14.8639 11.0314 15.0997 11.2663C15.3356 11.5012 15.6555 11.6332 15.989 11.6332H23.7949C23.96 11.6332 24.1236 11.6008 24.2762 11.5378C24.4288 11.4749 24.5674 11.3826 24.6842 11.2663C24.801 11.15 24.8936 11.0119 24.9568 10.8599C25.02 10.7079 25.0525 10.545 25.0525 10.3805C25.0525 10.216 25.02 10.0531 24.9568 9.90114C24.8936 9.74915 24.801 9.61106 24.6842 9.49474C24.5674 9.37842 24.4288 9.28615 24.2762 9.22319C24.1236 9.16024 23.96 9.12784 23.7949 9.12784H15.989C15.6555 9.12784 15.3356 9.25982 15.0997 9.49474C14.8639 9.72966 14.7314 10.0483 14.7314 10.3805Z" fill="#70DFDF"/>
<path d="M25.9916 11.4745C25.9916 11.1423 25.8591 10.8237 25.6232 10.5887C25.3874 10.3538 25.0675 10.2218 24.7339 10.2218H16.9281C16.5945 10.2218 16.2746 10.3538 16.0388 10.5887C15.8029 10.8237 15.6704 11.1423 15.6704 11.4745C15.6704 11.8067 15.8029 12.1254 16.0388 12.3603C16.2746 12.5952 16.5945 12.7272 16.9281 12.7272H24.7423C25.0744 12.725 25.3922 12.592 25.6262 12.3574C25.8603 12.1227 25.9916 11.8053 25.9916 11.4745Z" fill="#70DFDF" fill-opacity="0.4"/>
<path d="M14.7314 15.3662C14.7314 15.6984 14.8639 16.017 15.0997 16.2519C15.3356 16.4869 15.6555 16.6188 15.989 16.6188H23.7949C24.1284 16.6188 24.4483 16.4869 24.6842 16.2519C24.92 16.017 25.0525 15.6984 25.0525 15.3662C25.0525 15.0339 24.92 14.7153 24.6842 14.4804C24.4483 14.2455 24.1284 14.1135 23.7949 14.1135H15.989C15.6555 14.1135 15.3356 14.2455 15.0997 14.4804C14.8639 14.7153 14.7314 15.0339 14.7314 15.3662Z" fill="#70DFDF"/>
<path d="M25.9916 16.4602C25.9916 16.1279 25.8591 15.8093 25.6232 15.5744C25.3874 15.3395 25.0675 15.2075 24.7339 15.2075H16.9281C16.5945 15.2075 16.2746 15.3395 16.0388 15.5744C15.8029 15.8093 15.6704 16.1279 15.6704 16.4602C15.6704 16.7924 15.8029 17.111 16.0388 17.3459C16.2746 17.5809 16.5945 17.7128 16.9281 17.7128H24.7423C25.0744 17.7106 25.3922 17.5777 25.6262 17.343C25.8603 17.1083 25.9916 16.791 25.9916 16.4602Z" fill="#70DFDF" fill-opacity="0.4"/>
</svg>
