<svg width="44" height="29" viewBox="0 0 44 29" fill="none" xmlns="http://www.w3.org/2000/svg">
<g clip-path="url(#clip0)">
<path d="M35.2241 19.4333H7.9491C7.49228 19.4333 7.05417 19.614 6.73115 19.9355C6.40813 20.257 6.22665 20.6931 6.22665 21.1478C6.22665 21.6025 6.40813 22.0386 6.73115 22.3601C7.05417 22.6816 7.49228 22.8623 7.9491 22.8623H35.2241C36.2716 22.8599 37.3076 22.6437 38.2678 22.2269C39.228 21.8101 40.092 21.2015 40.8064 20.439C41.5209 19.6764 42.0705 18.7761 42.4213 17.7936C42.7721 16.8111 42.9167 15.7675 42.846 14.7272C42.6701 12.7728 41.7584 10.9569 40.2937 9.64369C38.829 8.33045 36.9196 7.61701 34.9485 7.64647H34.8452C34.3883 7.64647 33.9502 7.8271 33.6272 8.14862C33.3042 8.47014 33.1227 8.90622 33.1227 9.36092C33.1227 9.81562 33.3042 10.2517 33.6272 10.5732C33.9502 10.8947 34.3883 11.0754 34.8452 11.0754H35.0346C36.1002 11.0524 37.1366 11.4235 37.9431 12.1171C38.7497 12.8106 39.2691 13.7773 39.4011 14.83C39.4586 15.4112 39.3936 15.998 39.2101 16.5527C39.0266 17.1073 38.7286 17.6178 38.3354 18.0512C37.9421 18.4846 37.4622 18.8314 36.9264 19.0694C36.3907 19.3074 35.8108 19.4314 35.2241 19.4333Z" fill="#70DFDF" fill-opacity="0.4"/>
<path d="M1.72245 16.1844H22.1077C23.1559 16.1833 24.1928 15.9679 25.154 15.5516C26.1152 15.1353 26.9803 14.527 27.6957 13.7643C28.411 13.0016 28.9614 12.1009 29.3128 11.1178C29.6641 10.1348 29.8089 9.09038 29.7381 8.04936C29.5585 6.09575 28.6459 4.28123 27.1823 2.96739C25.7187 1.65354 23.8115 0.936835 21.8407 0.96009H21.7287C21.2719 0.96009 20.8338 1.14072 20.5108 1.46224C20.1877 1.78376 20.0063 2.21984 20.0063 2.67454C20.0063 3.12925 20.1877 3.56532 20.5108 3.88685C20.8338 4.20837 21.2719 4.389 21.7287 4.389H21.9182C22.9851 4.36622 24.0225 4.73859 24.8293 5.4339C25.636 6.12921 26.1546 7.09792 26.2846 8.15223C26.3435 8.73367 26.2795 9.32095 26.0964 9.87623C25.9134 10.4315 25.6156 10.9425 25.222 11.3762C24.8285 11.8098 24.3481 12.1567 23.8117 12.3942C23.2752 12.6318 22.6948 12.7549 22.1077 12.7555H1.72245C1.26563 12.7555 0.827516 12.9362 0.504494 13.2577C0.181472 13.5792 0 14.0153 0 14.47C0 14.9247 0.181472 15.3608 0.504494 15.6823C0.827516 16.0038 1.26563 16.1844 1.72245 16.1844Z" fill="#70DFDF" fill-opacity="0.4"/>
<path d="M25.699 27.2855C25.699 26.8308 25.5175 26.3948 25.1945 26.0732C24.8714 25.7517 24.4333 25.5711 23.9765 25.5711H2.01527C1.55844 25.5711 1.12033 25.7517 0.79731 26.0732C0.474288 26.3948 0.292816 26.8308 0.292816 27.2855C0.292816 27.7402 0.474288 28.1763 0.79731 28.4978C1.12033 28.8194 1.55844 29 2.01527 29H23.9765C24.4333 29 24.8714 28.8194 25.1945 28.4978C25.5175 28.1763 25.699 27.7402 25.699 27.2855Z" fill="#70DFDF" fill-opacity="0.4"/>
<path d="M36.0853 6.6778H35.9734C35.5166 6.6778 35.0784 6.85843 34.7554 7.17995C34.4324 7.50148 34.2509 7.93756 34.2509 8.39226C34.2509 8.84696 34.4324 9.28304 34.7554 9.60456C35.0784 9.92608 35.5166 10.1067 35.9734 10.1067H36.1715C37.2384 10.0839 38.2758 10.4563 39.0825 11.1516C39.8893 11.8469 40.4079 12.8156 40.5379 13.8699C40.5969 14.451 40.5328 15.0379 40.3497 15.5927C40.1666 16.1475 39.8686 16.658 39.475 17.091C39.0813 17.524 38.6008 17.87 38.0644 18.1067C37.528 18.3433 36.9476 18.4652 36.3609 18.4647H9.07731C8.62049 18.4647 8.18237 18.6453 7.85935 18.9668C7.53633 19.2884 7.35486 19.7244 7.35486 20.1791C7.35486 20.6338 7.53633 21.0699 7.85935 21.3914C8.18237 21.713 8.62049 21.8936 9.07731 21.8936H36.3523C37.3998 21.8924 38.4359 21.6772 39.3965 21.2614C40.3571 20.8457 41.2218 20.2381 41.937 19.4764C42.6522 18.7146 43.2028 17.8149 43.5547 16.8329C43.9066 15.8509 44.0523 14.8074 43.9828 13.7671C43.8031 11.8135 42.8906 9.99895 41.427 8.6851C39.9633 7.37125 38.0561 6.65455 36.0853 6.6778Z" fill="#6980C5"/>
<path d="M30.8663 7.08927C30.6867 5.13566 29.7741 3.32114 28.3105 2.0073C26.8469 0.69345 24.9397 -0.0232556 22.9689 -6.28876e-07H22.8655C22.4087 -6.28876e-07 21.9706 0.180629 21.6476 0.502151C21.3246 0.823674 21.1431 1.25975 21.1431 1.71445C21.1431 2.16916 21.3246 2.60523 21.6476 2.92676C21.9706 3.24828 22.4087 3.42891 22.8655 3.42891H23.0464C24.1148 3.40398 25.1543 3.77537 25.9629 4.47088C26.7715 5.16639 27.2913 6.13633 27.4214 7.19214C27.479 7.77219 27.4142 8.35782 27.2311 8.91147C27.048 9.46513 26.7507 9.9746 26.3583 10.4072C25.9658 10.8398 25.4869 11.186 24.9521 11.4236C24.4174 11.6612 23.8387 11.7849 23.2531 11.7869H2.85065C2.39383 11.7869 1.95572 11.9675 1.6327 12.289C1.30968 12.6105 1.1282 13.0466 1.1282 13.5013C1.1282 13.956 1.30968 14.3921 1.6327 14.7136C1.95572 15.0352 2.39383 15.2158 2.85065 15.2158H23.2531C24.2995 15.2135 25.3343 14.9974 26.2934 14.5811C27.2526 14.1647 28.1157 13.5568 28.8293 12.795C29.543 12.0333 30.092 11.1339 30.4423 10.1524C30.7927 9.171 30.937 8.12844 30.8663 7.08927Z" fill="#70DFDF"/>
<path d="M3.14347 28.0399H25.1047C25.5615 28.0399 25.9997 27.8593 26.3227 27.5377C26.6457 27.2162 26.8272 26.7801 26.8272 26.3254C26.8272 25.8707 26.6457 25.4347 26.3227 25.1131C25.9997 24.7916 25.5615 24.611 25.1047 24.611H3.14347C2.68665 24.611 2.24854 24.7916 1.92551 25.1131C1.60249 25.4347 1.42102 25.8707 1.42102 26.3254C1.42102 26.7801 1.60249 27.2162 1.92551 27.5377C2.24854 27.8593 2.68665 28.0399 3.14347 28.0399Z" fill="#6980C5"/>
</g>
<defs>
<clipPath id="clip0">
<rect width="44" height="29" fill="white"/>
</clipPath>
</defs>
</svg>
